<svg id="visual" viewBox="0 0 540 960" width="540" height="960" xmlns="http://www.w3.org/2000/svg" xmlns:xlink="http://www.w3.org/1999/xlink" version="1.1"><rect x="0" y="0" width="540" height="960" fill="#1A1A1D"></rect><path d="M0 612L12.8 628.3C25.7 644.7 51.3 677.3 77 681.2C102.7 685 128.3 660 154 650.3C179.7 640.7 205.3 646.3 231.2 643.2C257 640 283 628 308.8 615.7C334.7 603.3 360.3 590.7 386 592.5C411.7 594.3 437.3 610.7 463 608.5C488.7 606.3 514.3 585.7 527.2 575.3L540 565L540 961L527.2 961C514.3 961 488.7 961 463 961C437.3 961 411.7 961 386 961C360.3 961 334.7 961 308.8 961C283 961 257 961 231.2 961C205.3 961 179.7 961 154 961C128.3 961 102.7 961 77 961C51.3 961 25.7 961 12.8 961L0 961Z" fill="#950740"></path><path d="M0 713L12.8 712.7C25.7 712.3 51.3 711.7 77 718.7C102.7 725.7 128.3 740.3 154 741.3C179.7 742.3 205.3 729.7 231.2 718C257 706.3 283 695.7 308.8 691.5C334.7 687.3 360.3 689.7 386 693.2C411.7 696.7 437.3 701.3 463 709C488.7 716.7 514.3 727.3 527.2 732.7L540 738L540 961L527.2 961C514.3 961 488.7 961 463 961C437.3 961 411.7 961 386 961C360.3 961 334.7 961 308.8 961C283 961 257 961 231.2 961C205.3 961 179.7 961 154 961C128.3 961 102.7 961 77 961C51.3 961 25.7 961 12.8 961L0 961Z" fill="#a10541"></path><path d="M0 739L12.8 738C25.7 737 51.3 735 77 741.7C102.7 748.3 128.3 763.7 154 760.8C179.7 758 205.3 737 231.2 729.5C257 722 283 728 308.8 735.8C334.7 743.7 360.3 753.3 386 761.5C411.7 769.7 437.3 776.3 463 782C488.7 787.7 514.3 792.3 527.2 794.7L540 797L540 961L527.2 961C514.3 961 488.7 961 463 961C437.3 961 411.7 961 386 961C360.3 961 334.7 961 308.8 961C283 961 257 961 231.2 961C205.3 961 179.7 961 154 961C128.3 961 102.7 961 77 961C51.3 961 25.7 961 12.8 961L0 961Z" fill="#ac0441"></path><path d="M0 800L12.8 799.7C25.7 799.3 51.3 798.7 77 801C102.7 803.3 128.3 808.7 154 804.7C179.7 800.7 205.3 787.3 231.2 792.5C257 797.7 283 821.3 308.8 827.5C334.7 833.7 360.3 822.3 386 810.8C411.7 799.3 437.3 787.7 463 787.2C488.7 786.7 514.3 797.3 527.2 802.7L540 808L540 961L527.2 961C514.3 961 488.7 961 463 961C437.3 961 411.7 961 386 961C360.3 961 334.7 961 308.8 961C283 961 257 961 231.2 961C205.3 961 179.7 961 154 961C128.3 961 102.7 961 77 961C51.3 961 25.7 961 12.8 961L0 961Z" fill="#b80440"></path><path d="M0 883L12.8 879.8C25.7 876.7 51.3 870.3 77 871.7C102.7 873 128.3 882 154 884.5C179.7 887 205.3 883 231.2 886.2C257 889.3 283 899.7 308.8 901.2C334.7 902.7 360.3 895.3 386 883.7C411.7 872 437.3 856 463 855C488.7 854 514.3 868 527.2 875L540 882L540 961L527.2 961C514.3 961 488.7 961 463 961C437.3 961 411.7 961 386 961C360.3 961 334.7 961 308.8 961C283 961 257 961 231.2 961C205.3 961 179.7 961 154 961C128.3 961 102.7 961 77 961C51.3 961 25.7 961 12.8 961L0 961Z" fill="#c3073f"></path></svg>