<svg id="visual" viewBox="0 0 960 540" width="960" height="540" xmlns="http://www.w3.org/2000/svg" xmlns:xlink="http://www.w3.org/1999/xlink" version="1.1"><rect x="0" y="0" width="960" height="540" fill="#1A1A1D"></rect><path d="M0 344L22.8 353.2C45.7 362.3 91.3 380.7 137 382.8C182.7 385 228.3 371 274 365.5C319.7 360 365.3 363 411.2 361.2C457 359.3 503 352.7 548.8 345.8C594.7 339 640.3 332 686 333C731.7 334 777.3 343 823 341.7C868.7 340.3 914.3 328.7 937.2 322.8L960 317L960 541L937.2 541C914.3 541 868.7 541 823 541C777.3 541 731.7 541 686 541C640.3 541 594.7 541 548.8 541C503 541 457 541 411.2 541C365.3 541 319.7 541 274 541C228.3 541 182.7 541 137 541C91.3 541 45.7 541 22.8 541L0 541Z" fill="#950740"></path><path d="M0 401L22.8 400.8C45.7 400.7 91.3 400.3 137 404.2C182.7 408 228.3 416 274 416.5C319.7 417 365.3 410 411.2 403.5C457 397 503 391 548.8 388.7C594.7 386.3 640.3 387.7 686 389.7C731.7 391.7 777.3 394.3 823 398.7C868.7 403 914.3 409 937.2 412L960 415L960 541L937.2 541C914.3 541 868.7 541 823 541C777.3 541 731.7 541 686 541C640.3 541 594.7 541 548.8 541C503 541 457 541 411.2 541C365.3 541 319.7 541 274 541C228.3 541 182.7 541 137 541C91.3 541 45.7 541 22.8 541L0 541Z" fill="#a10541"></path><path d="M0 415L22.8 414.5C45.7 414 91.3 413 137 416.8C182.7 420.7 228.3 429.3 274 427.7C319.7 426 365.3 414 411.2 409.7C457 405.3 503 408.7 548.8 413.2C594.7 417.7 640.3 423.3 686 428C731.7 432.7 777.3 436.3 823 439.5C868.7 442.7 914.3 445.3 937.2 446.7L960 448L960 541L937.2 541C914.3 541 868.7 541 823 541C777.3 541 731.7 541 686 541C640.3 541 594.7 541 548.8 541C503 541 457 541 411.2 541C365.3 541 319.7 541 274 541C228.3 541 182.7 541 137 541C91.3 541 45.7 541 22.8 541L0 541Z" fill="#ac0441"></path><path d="M0 449L22.8 449C45.7 449 91.3 449 137 450.3C182.7 451.7 228.3 454.3 274 452C319.7 449.7 365.3 442.3 411.2 445.3C457 448.3 503 461.7 548.8 465.2C594.7 468.7 640.3 462.3 686 455.8C731.7 449.3 777.3 442.7 823 442.3C868.7 442 914.3 448 937.2 451L960 454L960 541L937.2 541C914.3 541 868.7 541 823 541C777.3 541 731.7 541 686 541C640.3 541 594.7 541 548.8 541C503 541 457 541 411.2 541C365.3 541 319.7 541 274 541C228.3 541 182.7 541 137 541C91.3 541 45.7 541 22.8 541L0 541Z" fill="#b80440"></path><path d="M0 496L22.8 494.3C45.7 492.7 91.3 489.3 137 490.2C182.7 491 228.3 496 274 497.3C319.7 498.7 365.3 496.3 411.2 498C457 499.7 503 505.3 548.8 506.2C594.7 507 640.3 503 686 496.5C731.7 490 777.3 481 823 480.5C868.7 480 914.3 488 937.2 492L960 496L960 541L937.2 541C914.3 541 868.7 541 823 541C777.3 541 731.7 541 686 541C640.3 541 594.7 541 548.8 541C503 541 457 541 411.2 541C365.3 541 319.7 541 274 541C228.3 541 182.7 541 137 541C91.3 541 45.7 541 22.8 541L0 541Z" fill="#c3073f"></path></svg>